<svg version="1.2" xmlns="http://www.w3.org/2000/svg" viewBox="0 0 80 79" width="80" height="79"><style>.a{fill:none;stroke:#00c194;stroke-width:2}.b{fill:#062b50}</style><rect class="a" x="1" y="1" width="78" height="76" rx="13"></rect><path fill-rule="evenodd" class="b" d="m30.3 38c-1.3 0-2.5-0.2-3.6-0.7-1.1-0.4-2.1-1.1-3-1.9-0.8-0.9-1.5-1.9-2-3-0.4-1-0.7-2.2-0.7-3.4 0-1.2 0.3-2.4 0.7-3.4 0.5-1.1 1.2-2.1 2-3 0.9-0.8 1.9-1.5 3-1.9 1.1-0.5 2.3-0.7 3.5-0.7 2.5 0 4.8 0.9 6.6 2.6 1.7 1.7 2.7 4 2.7 6.4 0 2.4-1 4.7-2.7 6.4-1.8 1.7-4.1 2.6-6.6 2.6zm0-4c1.4 0 2.7-0.5 3.7-1.5 0.9-0.9 1.5-2.2 1.5-3.5 0-1.3-0.6-2.6-1.5-3.5-1-1-2.3-1.5-3.7-1.5-1.3 0-2.6 0.5-3.6 1.5-0.9 0.9-1.5 2.2-1.5 3.5 0 1.3 0.6 2.6 1.5 3.5 1 1 2.3 1.5 3.6 1.5zm21.6 12c-2.2 0-4.3-0.8-5.8-2.3-1.6-1.5-2.4-3.6-2.4-5.7 0-2.1 0.8-4.2 2.4-5.7 1.5-1.5 3.6-2.3 5.8-2.3 2.1 0 4.2 0.8 5.8 2.3 1.5 1.5 2.4 3.6 2.4 5.7 0 2.1-0.9 4.2-2.4 5.7-1.6 1.5-3.7 2.3-5.8 2.3zm0-4c1.1 0 2.1-0.4 2.9-1.2 0.7-0.7 1.2-1.7 1.2-2.8 0-1.1-0.5-2.1-1.2-2.8-0.8-0.8-1.8-1.2-2.9-1.2-1.1 0-2.2 0.4-2.9 1.2-0.8 0.7-1.2 1.7-1.2 2.8 0 1.1 0.4 2.1 1.2 2.8 0.7 0.8 1.8 1.2 2.9 1.2zm5.1 16v-1c0-1.3-0.5-2.6-1.5-3.5-1-1-2.3-1.5-3.6-1.5-1.4 0-2.7 0.5-3.6 1.5-1 0.9-1.6 2.2-1.6 3.5v1h-4.1v-1c0-1.2 0.3-2.4 0.8-3.4 0.4-1.1 1.1-2.1 2-3 0.8-0.8 1.8-1.5 2.9-1.9 1.2-0.5 2.4-0.7 3.6-0.7 1.2 0 2.4 0.2 3.5 0.7 1.1 0.4 2.1 1.1 3 1.9 0.9 0.9 1.5 1.9 2 3 0.5 1 0.7 2.2 0.7 3.4v1zm-20.5 0v-8c0-1.6-0.6-3.1-1.8-4.2-1.2-1.2-2.7-1.8-4.4-1.8-1.6 0-3.1 0.6-4.3 1.8-1.2 1.1-1.8 2.6-1.8 4.2v8h-4.1v-8c0-2.7 1.1-5.2 3-7.1 1.9-1.8 4.5-2.9 7.3-2.9 2.7 0 5.3 1.1 7.2 2.9 1.9 1.9 3 4.4 3 7.1v8z"/></svg>